<?xml version="1.0" encoding="UTF-8"?>
<svg width="25px" height="30px" viewBox="0 0 25 30" version="1.1" xmlns="http://www.w3.org/2000/svg" xmlns:xlink="http://www.w3.org/1999/xlink">
    <!-- Generator: Sketch 50.2 (55047) - http://www.bohemiancoding.com/sketch -->
    <title>Fill 1</title>
    <desc>Created with Sketch.</desc>
    <defs></defs>
    <g id="Page-1" stroke="none" stroke-width="1" fill="none" fill-rule="evenodd">
        <g id="01.Trang-Chu" transform="translate(-1102.000000, -1252.000000)" fill="#FFFFFF">
            <g id="Group-6" transform="translate(935.000000, 1151.000000)">
                <path d="M191.140625,114.203125 C191.713545,114.671875 192,115.27083 192,116 C192,116.72917 191.713545,117.328125 191.140625,117.796875 L169.421875,130.765625 C169.109374,130.921876 168.822918,131 168.5625,131 C168.145831,131 167.781251,130.843752 167.46875,130.53125 C167.156248,130.218749 167,129.854169 167,129.4375 L167,102.5625 C167,102.14583 167.156248,101.78125 167.46875,101.46875 C167.781251,101.15625 168.145831,101 168.5625,101 C168.875001,101 169.161457,101.078125 169.421875,101.234375 L191.140625,114.203125 Z" id="Fill-1"></path>
            </g>
        </g>
    </g>
</svg>